<?xml version="1.0" encoding="utf-8"?>
<svg version="1.1" xmlns:xlink="http://www.w3.org/1999/xlink" width="20px" height="20px" preserveAspectRatio="xMinYMid meet" viewBox="402 1371  20 18" xmlns="http://www.w3.org/2000/svg">
  <defs>
    <mask fill="white" id="clip182">
      <path d="M 450.5 1366  L 497.5 1366  L 497.5 1394  L 450.5 1394  Z M 400 1366  L 547 1366  L 547 1394  L 400 1394  Z " fill-rule="evenodd" />
    </mask>
  </defs>
  <path d="M 450.5 1380  L 412 1380  M 497.5 1380  L 535 1380  " stroke-width="2" stroke="#2db7f5" fill="none" />
  <path d="M 417.107106781187 1384.29289321881  L 412.814213562373 1380  L 417.107106781187 1375.70710678119  L 415.692893218813 1374.29289321881  L 410.692893218813 1379.29289321881  L 409.985786437627 1380  L 410.692893218813 1380.70710678119  L 415.692893218813 1385.70710678119  L 417.107106781187 1384.29289321881  Z M 529.892893218813 1375.70710678119  L 534.185786437627 1380  L 529.892893218813 1384.29289321881  L 531.307106781187 1385.70710678119  L 536.307106781187 1380.70710678119  L 537.014213562373 1380  L 536.307106781187 1379.29289321881  L 531.307106781187 1374.29289321881  L 529.892893218813 1375.70710678119  Z " fill-rule="nonzero" fill="#2db7f5" stroke="none" mask="url(#clip182)" />
</svg>