<?xml version="1.0" encoding="utf-8"?>
<svg version="1.1" xmlns:xlink="http://www.w3.org/1999/xlink" width="20px" height="17px" xmlns="http://www.w3.org/2000/svg">
  <g transform="matrix(1 0 0 1 -1285 -42 )">
    <path d="M 20 8.5  C 20 13.2222222148438  15.555555546875 17  10 17  C 4.444444453125 17  0 13.2222222148438  0 8.5  C 0 3.77777778515625  4.444444453125 0  10 0  C 15.555555546875 0  20 3.77777778515625  20 8.5  Z M 1.33333333984375 8.5  C 1.33333333984375 12.5611111074219  5.2222222265625 15.8666666611328  10 15.8666666611328  C 14.7777777734375 15.8666666611328  18.6666666601562 12.5611111074219  18.6666666601562 8.5  C 18.6666666601562 4.43888889257813  14.7777777734375 1.13333333886719  10 1.13333333886719  C 5.2222222265625 1.13333333886719  1.33333333984375 4.43888889257812  1.33333333984375 8.5  Z M 7.7777777734375 5.19444444628906  C 8.3333333203125 4.62777778515625  9.2222222265625 4.34444444628906  10.2222222265625 4.34444444628906  C 11.1111111132813 4.34444444628906  11.8888888867188 4.53333333886719  12.444444453125 5.00555555371094  C 13 5.38333333886719  13.3333333398438 6.04444444628906  13.3333333398438 6.70555555371094  C 13.3333333398438 7.27222221484375  13.1111111132813 7.83888889257813  12.7777777734375 8.21666666113281  C 12.6666666601563 8.31111110742188  12.2222222265625 8.68888887597656  11.555555546875 9.16111110742188  C 11.3333333203125 9.35  11.11111109375 9.53888889257813  11 9.82222221484375  C 10.8888888867188 10.1055555537109  10.7777777734375 10.3888888759766  10.7777777734375 10.5777777851563  L 10.7777777734375 10.7666666611328  L 9.2222222265625 10.7666666611328  L 9.2222222265625 10.5777777851563  C 9.2222222265625 10.1055555703125  9.33333333984375 9.72777778515625  9.555555546875 9.44444444628906  C 9.7777777734375 9.06666666113281  10.3333333203125 8.59444444628906  11.1111111132812 7.93333333886719  L 11.3333333398437 7.74444444628906  C 11.5555555664062 7.46111110742188  11.7777777929687 7.17777778515625  11.7777777734375 6.89444444628906  C 11.7777777734375 6.51666666113281  11.6666666601562 6.13888889257813  11.3333333398437 5.95  C 11 5.66666666113281  10.6666666796875 5.57222221484375  10.1111111132813 5.57222221484375  C 9.444444453125 5.57222221484375  9 5.76111110742188  8.66666666015625 6.04444444628906  C 8.44444443359375 6.32777778515625  8.3333333203125 6.70555555371094  8.33333333984375 7.27222221484375  L 6.88888888671875 7.27222221484375  C 6.88888888671875 6.42222221484375  7.2222222265625 5.66666666113281  7.7777777734375 5.19444444628906  Z M 9.33333333984375 11.8055555537109  C 9.444444453125 11.5222222148437  9.77777779296875 11.4277777685547  10 11.4277777851563  C 10.3333333398438 11.4277777851563  10.555555546875 11.5222222314453  10.7777777734375 11.7111111074219  C 11 11.9  11.1111111132813 12.0888888925781  11.1111111132813 12.3722222148438  C 11.1111111132813 12.6555555537109  11 12.8444444296875  10.7777777734375 13.0333333388672  C 10.555555546875 13.2222222314453  10.3333333203125 13.3166666777344  10 13.3166666611328  C 9.444444453125 13.3166666611328  9 12.9388888759766  9 12.4666666611328  C 9 12.1833333222656  9.11111111328125 11.9944444462891  9.33333333984375 11.8055555537109  Z " fill-rule="nonzero" fill="#707070" stroke="none" transform="matrix(1 0 0 1 1285 42 )" />
  </g>
</svg>