<?xml version="1.0" encoding="utf-8"?>
<svg version="1.1" xmlns:xlink="http://www.w3.org/1999/xlink" width="25px" height="25px" xmlns="http://www.w3.org/2000/svg">
  <g transform="matrix(1 0 0 1 -60 -123 )">
    <path d="M 25 12.5864611693492  C 25 5.74226781665795  19.4311738037109 0.172922338698318  12.5864611572266 0.172922338698318  C 5.74174853515625 0.172922338698318  0.172922314453126 5.74226781665794  0.172922314453126 12.5864611693492  C 0.172922314453126 19.4306545220404  5.74226779785156 25  12.5864611572266 25  C 19.4306545166016 25  25 19.4306545220404  25 12.5864611693492  Z M 23.9707745605469 12.5864611449351  C 23.9707745605469 18.8641131407577  18.8641131591797 23.9712938242468  12.5864611572266 23.9712938242468  C 6.30880915527344 23.9712938242468  1.20214775390625 18.8641131407577  1.20214775390625 12.5864611449351  C 1.20214775390625 6.30880914911249  6.30880915527344 1.20162846562341  12.5864611572266 1.20162846562341  C 18.8641131591797 1.20162846562341  23.9707745605469 6.30880914911249  23.9707745605469 12.5864611449351  Z M 19.1855513671875 18.9362939512341  C 19.1845128173828 16.1461686854041  17.45113515625 13.7621253283573  15.0042581542969 12.7972913937526  C 16.1700558837891 12.0168040898273  16.9385995849609 10.6879504778438  16.9385995849609 9.17942379474666  C 16.9385995849609 6.77616683908577  14.9902374023438 4.82780465837128  12.5869804443359 4.82780465837128  C 10.1837234863281 4.82780465837128  8.23536130371094 6.77616683908577  8.23536130371094 9.17942379474666  C 8.23536130371094 10.6884697649527  9.00390502929688 12.0168040898273  10.1702220214844 12.7972913937526  C 7.7223064453125 13.7621253283573  5.98944807128906 16.1461686854041  5.98944807128906 18.9362939512341  C 5.98944807128906 18.9420061094316  5.98944807128906 18.9471989561063  5.98996735839844 18.9523918271949  C 5.98996735839844 18.9534304014127  5.98944807128906 18.9549882627393  5.98944807128906 18.956026836957  C 5.98944807128906 19.3371829645145  6.29842341308594 19.6456390433148  6.67957956542969 19.6456390433148  C 7.06021640625 19.6456390433148  7.21392517089844 19.3371829889285  7.21392517089844 18.956026836957  C 7.21392517089844 18.9477182676292  7.21184802246094 18.9399289609962  7.21132873535156 18.9311011045595  C 7.21392517089844 16.0501007655761  9.70546079101562 13.5601229848046  12.5874997314453 13.5601229848046  C 15.4710965087891 13.5601229848046  17.9636707275391 16.0526971767063  17.9636707275391 18.9362939756481  C 17.9636707275391 18.9399289854102  17.9278399658203 19.6456390433148  18.5000934570312 19.6456390433148  C 18.8786531738281 19.6456390433148  19.1855513671875 19.3387408502551  19.1855513671875 18.9607004209368  C 19.1855513671875 18.9591425596102  19.1850320800781 18.9575846982836  19.1850320800781 18.9555075498481  C 19.1850320800781 18.9492761045417  19.1855513671875 18.9430446836494  19.1855513671875 18.9362939512341  Z M 15.8756205322266 9.17994308185552  C 15.8756205322266 10.9964065322301  14.402924609375 12.4691024536435  12.5864611572266 12.4691024536435  C 10.7699977050781 12.4691024536435  9.29730178222656 10.9964065322301  9.29730178222656 9.17994308185552  C 9.29730178222656 7.36296034437211  10.7699977050781 5.89078371006759  12.5864611572266 5.89078371006759  C 14.4034438964844 5.89078371006759  15.8756205322266 7.36347963148098  15.8756205322266 9.17994308185552  Z " fill-rule="nonzero" fill="#ffffff" stroke="none" transform="matrix(1 0 0 1 60 123 )" />
  </g>
</svg>