<?xml version="1.0" encoding="utf-8"?>
<svg version="1.1" xmlns:xlink="http://www.w3.org/1999/xlink" width="60px" height="60px" xmlns="http://www.w3.org/2000/svg">
  <defs>
    <filter x="300px" y="670px" width="60px" height="60px" filterUnits="userSpaceOnUse" id="filter191">
      <feOffset dx="5" dy="5" in="SourceAlpha" result="shadowOffsetInner" />
      <feGaussianBlur stdDeviation="2.5" in="shadowOffsetInner" result="shadowGaussian" />
      <feComposite in2="shadowGaussian" operator="atop" in="SourceAlpha" result="shadowComposite" />
      <feColorMatrix type="matrix" values="0 0 0 0 0.666666666666667  0 0 0 0 0.666666666666667  0 0 0 0 0.666666666666667  0 0 0 0.349019607843137 0  " in="shadowComposite" />
    </filter>
    <g id="widget192">
      <path d="M 325 670  C 339 670  350 681  350 695  C 350 709  339 720  325 720  C 311 720  300 709  300 695  C 300 681  311 670  325 670  Z " fill-rule="nonzero" fill="#f59a23" stroke="none" />
      <path d="M 325 670.5  C 338.72 670.5  349.5 681.28  349.5 695  C 349.5 708.72  338.72 719.5  325 719.5  C 311.28 719.5  300.5 708.72  300.5 695  C 300.5 681.28  311.28 670.5  325 670.5  Z " stroke-width="1" stroke="#d7d7d7" fill="none" />
    </g>
  </defs>
  <g transform="matrix(1 0 0 1 -300 -670 )">
    <use xlink:href="#widget192" filter="url(#filter191)" />
    <use xlink:href="#widget192" />
  </g>
</svg>