<?xml version="1.0" encoding="utf-8"?>
<svg version="1.1" xmlns:xlink="http://www.w3.org/1999/xlink" width="17px" height="17px" xmlns="http://www.w3.org/2000/svg">
  <g transform="matrix(1 0 0 1 -331 -47 )">
    <path d="M 339.5 49  C 343.14 49  346 51.86  346 55.5  C 346 59.14  343.14 62  339.5 62  C 335.86 62  333 59.14  333 55.5  C 333 51.86  335.86 49  339.5 49  Z " fill-rule="nonzero" fill="#ffffff" stroke="none" />
    <path d="M 339.5 48.5  C 343.42 48.5  346.5 51.58  346.5 55.5  C 346.5 59.42  343.42 62.5  339.5 62.5  C 335.58 62.5  332.5 59.42  332.5 55.5  C 332.5 51.58  335.58 48.5  339.5 48.5  Z " stroke-width="3" stroke="#000000" fill="none" />
  </g>
</svg>