<?xml version="1.0" encoding="utf-8"?>
<svg version="1.1" xmlns:xlink="http://www.w3.org/1999/xlink" width="133px" height="150px" xmlns="http://www.w3.org/2000/svg">
  <defs>
    <linearGradient gradientUnits="userSpaceOnUse" x1="226.5" y1="340" x2="226.5" y2="490" id="LinearGradient135">
      <stop id="Stop136" stop-color="#ffffff" offset="0" />
      <stop id="Stop137" stop-color="#f2f2f2" offset="0" />
      <stop id="Stop138" stop-color="#e4e4e4" offset="1" />
      <stop id="Stop139" stop-color="#ffffff" offset="1" />
    </linearGradient>
  </defs>
  <g transform="matrix(1 0 0 1 -160 -340 )">
    <path d="M 170.5 489.5  L 292.5 489.5  L 292.5 350.5  L 287.5 350.5  L 287.5 345.5  L 282.5 345.5  L 282.5 340.5  L 160.5 340.5  L 160.5 479.5  L 165.5 479.5  L 165.5 484.5  L 170.5 484.5  L 170.5 489.5  Z " fill-rule="nonzero" fill="url(#LinearGradient135)" stroke="none" />
    <path d="M 170.5 489.5  L 292.5 489.5  L 292.5 350.5  L 287.5 350.5  L 287.5 345.5  L 282.5 345.5  L 282.5 340.5  L 160.5 340.5  L 160.5 479.5  L 165.5 479.5  L 165.5 484.5  L 170.5 484.5  L 170.5 489.5  Z " stroke-width="1" stroke="#797979" fill="none" />
    <path d="M 287.5 351  L 287.5 484.5  L 171 484.5  M 282.5 346  L 282.5 479.5  L 166 479.5  " stroke-width="1" stroke="#797979" fill="none" />
  </g>
</svg>