<?xml version="1.0" encoding="utf-8"?>
<svg version="1.1" xmlns:xlink="http://www.w3.org/1999/xlink" width="325px" height="160px" xmlns="http://www.w3.org/2000/svg">
  <g transform="matrix(1 0 0 1 -32 -178 )">
    <path d="M 323.753799392097 158.558333333333  L 0.590881458966567 158.558333333333  C 0.590881458966567 158.558333333333  0.0984802431610956 79.3233333333334  0.0984802431610956 79.6766666666667  C 4.88468367467744 79.3427882726952  17.9022996114008 77.7333333333333  27.90273556231 77.7333333333333  C 45.0547112462006 77.7333333333333  43.6595744680851 102.466666666667  57.7750759878419 102.466666666667  C 71.8905775075988 102.466666666667  66.7339607625886 56.7149058629163  88.3039513677811 57.1222222222221  C 103.896656534954 57.4166666666667  106.167682244828 72.8588096561018  115.550151975684 73.0222222222221  C 132.455927051672 73.3166666666667  130.978723404255 0.294444444444177  147.720364741641 0.588888888888755  C 164.462006079028 0.883333333333333  155.776077058289 76.4999352658889  174.966565349544 81.2666666666667  C 185.635258358663 83.9166666666667  189.984802431611 80.825  204.182370820669 83.0333333333333  C 218.379939209726 85.2416666666667  218.133738601824 129.85  234.711246200608 130.144444444444  C 251.288753799392 130.438888888889  247.732006753408 114.118609448873  264.255319148936 114.244444444444  C 282.109898601658 114.380417842065  282.966565349544 131.322222222222  296.09726443769 131.911111111111  C 307.105903248524 132.404829307985  315.92462006079 101.583333333333  323.015197568389 102.466666666667  C 323.212158054711 102.996666666667  323.753799392097 158.558333333333  323.753799392097 158.558333333333  Z " fill-rule="nonzero" fill="#2db6f4" stroke="none" transform="matrix(1 0 0 1 32 178 )" />
  </g>
</svg>