<?xml version="1.0" encoding="utf-8"?>
<svg version="1.1" xmlns:xlink="http://www.w3.org/1999/xlink" width="326px" height="136px" xmlns="http://www.w3.org/2000/svg">
  <g transform="matrix(1 0 0 1 -31 -176 )">
    <path d="M 0 79.2088888888888  C 0 79.2088888888888  10.7502540650406 78.0266666666667  27.9014227642276 78.0266666666667  C 45.0525914634146 78.0266666666667  43.6575203252032 102.853333333333  57.7723577235772 102.853333333333  C 71.8871951219512 102.853333333333  66.7308209910231 56.9289243756065  88.2997967479674 57.3377777777776  C 103.891768292683 57.6333333333333  106.162687152883 73.1337485604644  115.544715447154 73.2977777777776  C 132.449695121951 73.5933333333333  130.97256097561 0.295555555555287  147.713414634146 0.591111111110977  C 164.454268292683 0.886666666666667  155.768747936928 76.7886142668922  174.958333333333 81.5733333333333  C 185.626524390244 84.2333333333333  189.975863821138 81.13  204.172764227642 83.3466666666667  C 218.369664634146 85.5633333333333  218.123475609756 130.34  234.700203252033 130.635555555555  C 251.276930894309 130.931111111111  247.720351190007 114.549245710944  264.242886178862 114.675555555555  C 282.096625590017 114.812042060337  282.95325203252 131.817777777778  296.083333333333 132.408888888889  C 309.213414634146 133  314.573960223073 99.7609917355374  322.67174796748 101.08  " stroke-width="2" stroke="#2db7f5" fill="none" transform="matrix(1 0 0 1 32 177 )" />
  </g>
</svg>