<?xml version="1.0" encoding="utf-8"?>
<svg version="1.1" xmlns:xlink="http://www.w3.org/1999/xlink" width="146px" height="66px" xmlns="http://www.w3.org/2000/svg">
  <defs>
    <mask fill="white" id="clip189">
      <path d="M 0 62.4642857142857  L 0 3.53571428571429  C 0 1.55571428571429  2.83411764705882 0  6.44117647058824 0  L 139.558823529412 0  C 143.165882352941 0  146 1.55571428571429  146 3.53571428571429  L 146 62.4642857142857  C 146 64.4442857142857  143.165882352941 66  139.558823529412 66  L 6.44117647058824 66  C 2.83411764705882 66  0 64.4442857142857  0 62.4642857142857  Z " fill-rule="evenodd" />
    </mask>
  </defs>
  <g transform="matrix(1 0 0 1 -194 -154 )">
    <path d="M 0 62.4642857142857  L 0 3.53571428571429  C 0 1.55571428571429  2.83411764705882 0  6.44117647058824 0  L 139.558823529412 0  C 143.165882352941 0  146 1.55571428571429  146 3.53571428571429  L 146 62.4642857142857  C 146 64.4442857142857  143.165882352941 66  139.558823529412 66  L 6.44117647058824 66  C 2.83411764705882 66  0 64.4442857142857  0 62.4642857142857  Z " fill-rule="nonzero" fill="#000000" stroke="none" transform="matrix(1 0 0 1 194 154 )" />
    <path d="M 0 62.4642857142857  L 0 3.53571428571429  C 0 1.55571428571429  2.83411764705882 0  6.44117647058824 0  L 139.558823529412 0  C 143.165882352941 0  146 1.55571428571429  146 3.53571428571429  L 146 62.4642857142857  C 146 64.4442857142857  143.165882352941 66  139.558823529412 66  L 6.44117647058824 66  C 2.83411764705882 66  0 64.4442857142857  0 62.4642857142857  Z " stroke-width="2" stroke="#ebebeb" fill="none" transform="matrix(1 0 0 1 194 154 )" mask="url(#clip189)" />
  </g>
</svg>