<?xml version="1.0" encoding="utf-8"?>
<svg version="1.1" xmlns:xlink="http://www.w3.org/1999/xlink" width="9px" height="7px" xmlns="http://www.w3.org/2000/svg">
  <g transform="matrix(1 0 0 1 -350 -177 )">
    <path d="M 354.5 178  C 356.46 178  358 179.1  358 180.5  C 358 181.9  356.46 183  354.5 183  C 352.54 183  351 181.9  351 180.5  C 351 179.1  352.54 178  354.5 178  Z " fill-rule="nonzero" fill="#ffffff" stroke="none" />
    <path d="M 354.5 178  C 356.46 178  358 179.1  358 180.5  C 358 181.9  356.46 183  354.5 183  C 352.54 183  351 181.9  351 180.5  C 351 179.1  352.54 178  354.5 178  Z " stroke-width="2" stroke="#2db7f5" fill="none" />
  </g>
</svg>