<?xml version="1.0" encoding="utf-8"?>
<svg version="1.1" xmlns:xlink="http://www.w3.org/1999/xlink" width="8px" height="8px" xmlns="http://www.w3.org/2000/svg">
  <g transform="matrix(1 0 0 1 -170 -541 )">
    <path d="M 174 542  C 175.68 542  177 543.32  177 545  C 177 546.68  175.68 548  174 548  C 172.32 548  171 546.68  171 545  C 171 543.32  172.32 542  174 542  Z " fill-rule="nonzero" fill="#ffffff" stroke="none" />
    <path d="M 174 542  C 175.68 542  177 543.32  177 545  C 177 546.68  175.68 548  174 548  C 172.32 548  171 546.68  171 545  C 171 543.32  172.32 542  174 542  Z " stroke-width="2" stroke="#2db7f5" fill="none" />
  </g>
</svg>