<?xml version="1.0" encoding="utf-8"?>
<svg version="1.1" xmlns:xlink="http://www.w3.org/1999/xlink" width="8px" height="8px" xmlns="http://www.w3.org/2000/svg">
  <g transform="matrix(1 0 0 1 -170 -603 )">
    <path d="M 174 604  C 175.68 604  177 605.32  177 607  C 177 608.68  175.68 610  174 610  C 172.32 610  171 608.68  171 607  C 171 605.32  172.32 604  174 604  Z " fill-rule="nonzero" fill="#ffffff" stroke="none" />
    <path d="M 174 604  C 175.68 604  177 605.32  177 607  C 177 608.68  175.68 610  174 610  C 172.32 610  171 608.68  171 607  C 171 605.32  172.32 604  174 604  Z " stroke-width="2" stroke="#4ad2e7" fill="none" />
  </g>
</svg>