<?xml version="1.0" encoding="utf-8"?>
<svg version="1.1" xmlns:xlink="http://www.w3.org/1999/xlink" width="60px" height="60px" xmlns="http://www.w3.org/2000/svg">
  <defs>
    <filter x="300px" y="480px" width="60px" height="60px" filterUnits="userSpaceOnUse" id="filter197">
      <feOffset dx="5" dy="5" in="SourceAlpha" result="shadowOffsetInner" />
      <feGaussianBlur stdDeviation="2.5" in="shadowOffsetInner" result="shadowGaussian" />
      <feComposite in2="shadowGaussian" operator="atop" in="SourceAlpha" result="shadowComposite" />
      <feColorMatrix type="matrix" values="0 0 0 0 0.666666666666667  0 0 0 0 0.666666666666667  0 0 0 0 0.666666666666667  0 0 0 0.349019607843137 0  " in="shadowComposite" />
    </filter>
    <g id="widget198">
      <path d="M 325 480  C 339 480  350 491  350 505  C 350 519  339 530  325 530  C 311 530  300 519  300 505  C 300 491  311 480  325 480  Z " fill-rule="nonzero" fill="#027db4" stroke="none" />
      <path d="M 325 480.5  C 338.72 480.5  349.5 491.28  349.5 505  C 349.5 518.72  338.72 529.5  325 529.5  C 311.28 529.5  300.5 518.72  300.5 505  C 300.5 491.28  311.28 480.5  325 480.5  Z " stroke-width="1" stroke="#d7d7d7" fill="none" />
    </g>
  </defs>
  <g transform="matrix(1 0 0 1 -300 -480 )">
    <use xlink:href="#widget198" filter="url(#filter197)" />
    <use xlink:href="#widget198" />
  </g>
</svg>