<?xml version="1.0" encoding="utf-8"?>
<svg version="1.1" xmlns:xlink="http://www.w3.org/1999/xlink" width="60px" height="60px" xmlns="http://www.w3.org/2000/svg">
  <defs>
    <filter x="300px" y="543px" width="60px" height="60px" filterUnits="userSpaceOnUse" id="filter195">
      <feOffset dx="5" dy="5" in="SourceAlpha" result="shadowOffsetInner" />
      <feGaussianBlur stdDeviation="2.5" in="shadowOffsetInner" result="shadowGaussian" />
      <feComposite in2="shadowGaussian" operator="atop" in="SourceAlpha" result="shadowComposite" />
      <feColorMatrix type="matrix" values="0 0 0 0 0.666666666666667  0 0 0 0 0.666666666666667  0 0 0 0 0.666666666666667  0 0 0 0.349019607843137 0  " in="shadowComposite" />
    </filter>
    <g id="widget196">
      <path d="M 325 543  C 339 543  350 554  350 568  C 350 582  339 593  325 593  C 311 593  300 582  300 568  C 300 554  311 543  325 543  Z " fill-rule="nonzero" fill="#b8741a" stroke="none" />
      <path d="M 325 543.5  C 338.72 543.5  349.5 554.28  349.5 568  C 349.5 581.72  338.72 592.5  325 592.5  C 311.28 592.5  300.5 581.72  300.5 568  C 300.5 554.28  311.28 543.5  325 543.5  Z " stroke-width="1" stroke="#d7d7d7" fill="none" />
    </g>
  </defs>
  <g transform="matrix(1 0 0 1 -300 -543 )">
    <use xlink:href="#widget196" filter="url(#filter195)" />
    <use xlink:href="#widget196" />
  </g>
</svg>